# xmcd
#
# Track frame offsets: 
#        150
#        15238
#        28041
#        42404
#        55875
#        70907
#        85883
#        100302
#        113272
#        125072
#        139045
#        154467
#        168607
#        182301
#        195382
#        208185
#        220709
#        234793
#        248543
#        262014
#        275875
#        289625
#        304713
#        319689
#        335222
#
# Disc length: 4650 seconds
#
# Revision: 1
# Processed by: cddbd v1.5.2PL0 Copyright (c) Steve Scherf et al.
# Submitted via: ExactAudioCopy v1.3
#
DISCID=67122819
DTITLE=Various Artist - The Rough Guide To Blues Divas 
DYEAR=2019
DGENRE=Blues
TTITLE0=Ma Rainey - Black Eye Blues 
TTITLE1=Hattie Burleson - Bye Bye Baby
TTITLE2=Ethel Waters - Sweet Georgia Brown
TTITLE3=Bessie Smith - Nobody Knows You When You're Down And Out
TTITLE4=Victoria Spivey - Dope Head Blues
TTITLE5=Alberta Hunter - Everybody Mess Around
TTITLE6=Mamie Smith - Jenny's Ball
TTITLE7=Ida Cox - Give Me A Break Blues
TTITLE8=Lucille Bogan - Tired As I Can Be
TTITLE9=Martha Copeland - Everybody Does It Now
TTITLE10=Clara Smith - Salty Dog
TTITLE11=Edith Wilson - My Man Is Good For Nothing But Love
TTITLE12=Lucille Hegamin - Shake Your Cans
TTITLE13=Sippie Wallace - I'm A Mighty Tight Woman
TTITLE14=Rosa Henderson - Get It Fixed
TTITLE15=Bertha "Chippie" Hill - Do Dirty Blues
TTITLE16=Lil Johnson - Get 'Em From The Peanut Man (Hot Nuts)
TTITLE17=Trixie Smith - Sorrowful Blues
TTITLE18=Sara Martin - You Got Ev'rything A Sweet Mama Needs But Me
TTITLE19=Esther Bigeou - The St. Louis Blues
TTITLE20=Ada Brown - Break O'Day Blues
TTITLE21=Maggie Jones - Anybody Here Want To Try My Cabbage?
TTITLE22=Lizzie Miles - Electrician Blues
TTITLE23=Bessie Tucker - Penitentiary
TTITLE24=Lena Wilson - He Used To Be Your Man But He's My Man Now
EXTD=YEAR: 2019
EXTT0=
EXTT1=
EXTT2=
EXTT3=
EXTT4=
EXTT5=
EXTT6=
EXTT7=
EXTT8=
EXTT9=
EXTT10=
EXTT11=
EXTT12=
EXTT13=
EXTT14=
EXTT15=
EXTT16=
EXTT17=
EXTT18=
EXTT19=
EXTT20=
EXTT21=
EXTT22=
EXTT23=
EXTT24=
PLAYORDER=
